HIERARCHY
ROOT Hips
{
  OFFSET 0.0 0.0 0.0
  CHANNELS 6 XPOSITION YPOSITION ZPOSITION ZROTATION XROTATION YROTATION 
  JOINT LeftUpLeg
  {
    OFFSET 0.089458 -0.0866707 0.00101652
    CHANNELS 3 ZROTATION XROTATION YROTATION 
    JOINT LeftLeg
    {
      OFFSET 0.0 -0.444227 0.013727
      CHANNELS 3 ZROTATION XROTATION YROTATION 
      JOINT LeftFoot
      {
        OFFSET -0.00253549 -0.420924 -0.0146059
        CHANNELS 3 ZROTATION XROTATION YROTATION 
        End Site
        {
          OFFSET -0.0004 -0.0441509 0.084991
        }
      }
    }
  }
  JOINT Spine
  {
    OFFSET 0.0 0.118905 0.0
    CHANNELS 3 ZROTATION XROTATION YROTATION 
    JOINT Spine1
    {
      OFFSET 0.0 0.256574 0.00127663
      CHANNELS 3 ZROTATION XROTATION YROTATION 
      End Site
      {
        OFFSET -0.0029 0.2150836 0.02525291
      }
      JOINT RightArm
      {
        OFFSET -0.162727 -0.05365632 0.00102123
        CHANNELS 3 ZROTATION XROTATION YROTATION 
        JOINT RightForeArm
        {
          OFFSET -0.26364 0.00099144 -0.0142434
          CHANNELS 3 ZROTATION XROTATION YROTATION 
          End Site
          {
            OFFSET -0.220324 0.00085362 0.0102216
          }
        }
      }
      JOINT LeftArm
      {
        OFFSET 0.162727 -0.0536563199 0.00102123
        CHANNELS 3 ZROTATION XROTATION YROTATION 
        JOINT LeftForeArm
        {
          OFFSET 0.262597 0.00099144 -0.0142434
          CHANNELS 3 ZROTATION XROTATION YROTATION 
          End Site
          {
            OFFSET 0.220902 0.00085362 0.0102216
          }
        }
      }
    }
  }
  JOINT RightUpLeg
  {
    OFFSET -0.089458 -0.0866707 0.00101652
    CHANNELS 3 ZROTATION XROTATION YROTATION 
    JOINT RightLeg
    {
      OFFSET 0.0 -0.444227 0.013727
      CHANNELS 3 ZROTATION XROTATION YROTATION 
      JOINT RightFoot
      {
        OFFSET 0.00253549 -0.420924 -0.0146059
        CHANNELS 3 ZROTATION XROTATION YROTATION 
        End Site
        {
          OFFSET 0.0004 -0.0441509 0.084991
        }
      }
    }
  }
}
MOTION
Frames: 6
Frame Time: 0.033333
-1.38121 1.03847377988 -0.0054923 -5.56631986694 0.0392652000685 -91.5167006512 -2.33760983188 0.152137994791 1.11304997502 0.00469130984521 10.5428008188 17.4089005622 -0.735684424618 -6.34849605521 0.0393578811999 0.0909451027168 10.2445998823 0.311897013271 -1.37044010437 -1.89942993129 0.615756014468 78.2905106065 -12.7702894317 4.79578274789 7.20117943252 37.333298324 10.1584993714 -72.9329170517 -9.28880455422 -2.05109513558 -6.10492980186 38.987498424 -12.1471004105 0.196249997813 0.296633995076 -3.34916981258 0.116650986566 11.855100432 -10.7695998116 2.08501364156 -7.7590052509 -0.126164346182 
-1.38096 1.03847377988 -0.0055922 -5.57491992887 0.0264845004013 -91.5050005371 -2.34641992213 0.140910991404 1.10292998255 -0.000438429025735 10.5495003807 17.4082004678 -0.722031143271 -6.3265963343 0.0393561869928 0.284487997741 10.342499545 0.316435006964 -1.73623003159 -2.05220013213 0.692608022348 78.3852521605 -12.6424171914 4.5960018491 7.12378015573 37.0204995657 10.3387002523 -72.8313862897 -9.45360165096 -2.10802326821 -6.13801993396 39.3181000704 -12.0380999829 0.182126007043 0.287346005022 -3.36386987378 0.126360994265 11.8658998149 -10.7700002314 2.10624357705 -7.75530499592 -0.12616297214 
-1.38057 1.03847377988 -0.00575717 -5.56292995867 -0.0067780201818 -91.4756990256 -2.36433999064 0.117576997467 1.08768990952 -0.011583399689 10.5116995525 17.3972994859 -0.695650338015 -6.27249654032 0.0393521082226 0.314167010634 10.3261002608 0.290627003783 -1.88862990811 -2.15187009448 0.692967994662 78.5390065489 -12.8066781183 4.47941692327 7.12260024055 37.0421000389 10.3164995762 -72.7760207763 -9.67999083233 -2.07973497255 -6.16544954678 39.5798978062 -11.9381999285 0.148837999565 0.238361996048 -3.39383007169 0.141336997773 11.8955001472 -10.7728996467 2.09311339214 -7.74950531154 -0.126161904923 
-1.38022 1.03847377988 -0.00594989 -5.53736968325 -0.0446238003024 -91.4397995513 -2.371659819 0.0929642974005 1.08931997686 -0.0478620003251 10.4502005292 17.365600578 -0.67839157056 -6.21729623211 0.0393478927152 0.046502902737 10.1886999066 0.252211005003 -1.56314001798 -2.08740997074 0.584637992774 78.6186533848 -13.2841561526 4.55043509583 7.14824973532 37.7423002968 10.0829002764 -72.8439538378 -9.75820759738 -1.97504119262 -6.22642990257 39.3555021863 -11.8946002698 0.116240001277 0.17149799257 -3.42607987707 0.156061004654 11.9332002301 -10.7869997185 2.0325930069 -7.74690471701 -0.126160344118 
-1.37991 1.03847377988 -0.00615225 -5.52703987591 -0.0602517000103 -91.4109010209 -2.35276986363 0.0698453943906 1.11257997263 -0.0835704994452 10.4299003532 17.3184995934 -0.679232270798 -6.19679627309 0.0393464252918 -0.190961990652 10.0978993718 0.228131013001 -1.2426600716 -1.97179002257 0.494068990689 78.6152382902 -13.6590985333 4.63169471016 7.0782799968 38.5944995844 9.95656995126 -72.9258819569 -9.68230199759 -1.91408324838 -6.28363999395 38.8959977948 -11.9134003654 0.11192700362 0.135616994488 -3.43884998294 0.168564999951 11.944598962 -10.8183998056 1.97578290847 -7.74100514112 -0.126159303581 
-1.3796 1.03847377988 -0.0063195 -5.54678040327 -0.0538501018756 -91.3981968691 -2.32611995959 0.0658462986213 1.13481992234 -0.0939591971625 10.4431005475 17.2874000346 -0.6928602591 -6.19969611528 0.0393465820393 -0.191080998694 10.1143994013 0.218021986184 -1.26379000885 -1.9183299185 0.487868032696 78.6008265911 -13.6988015692 4.62988300248 7.01042035985 38.9691013095 9.96877976817 -72.9366395048 -9.56304177204 -1.91619740537 -6.22076981019 38.6925981764 -12.029899487 0.130339993003 0.150603003156 -3.4316900237 0.174078990323 11.9192000498 -10.8440002084 1.96638200686 -7.72490553147 -0.126153954156 
